<svg aria-hidden="true" style="position: absolute; width: 0; height: 0; overflow: hidden;" version="1.1" xmlns="http://www.w3.org/2000/svg" xmlns:xlink="http://www.w3.org/1999/xlink">
<defs>
<symbol id="icon-Logo-6" viewBox="0 0 57 32">
<path d="M28.491 14.613c-0.235-0.315-0.352-0.683-0.32-1.061v-1.536c0-0.469 0.107-0.827 0.32-1.072s0.581-0.368 1.099-0.368c0.491 0 0.837 0.107 1.045 0.315 0.224 0.267 0.331 0.592 0.304 0.917v0.363h-0.875v-0.368c0.005-0.117-0.005-0.24-0.027-0.357-0.011-0.080-0.053-0.155-0.123-0.213-0.091-0.059-0.203-0.091-0.315-0.080-0.123-0.011-0.24 0.021-0.336 0.085-0.075 0.064-0.128 0.144-0.144 0.235-0.027 0.128-0.037 0.251-0.037 0.379v1.867c-0.011 0.181 0.027 0.363 0.112 0.528 0.048 0.053 0.107 0.096 0.176 0.123s0.149 0.037 0.229 0.032c0.112 0.005 0.219-0.021 0.309-0.085 0.069-0.059 0.117-0.139 0.128-0.229 0.021-0.123 0.032-0.245 0.027-0.373v-0.379h0.875v0.347c0.027 0.341-0.080 0.683-0.299 0.965-0.203 0.229-0.544 0.347-1.051 0.347-0.501 0-0.885-0.123-1.099-0.379z"></path>
<path d="M32.133 14.629c-0.219-0.24-0.331-0.587-0.331-1.051v-1.616c0-0.453 0.112-0.8 0.331-1.035 0.224-0.235 0.592-0.352 1.109-0.352s0.885 0.117 1.104 0.352c0.219 0.235 0.336 0.581 0.336 1.035v1.616c0 0.459-0.117 0.811-0.341 1.051s-0.587 0.363-1.099 0.363c-0.507 0-0.885-0.123-1.109-0.363zM33.653 14.245c0.075-0.155 0.112-0.315 0.101-0.48v-1.984c0.011-0.16-0.021-0.32-0.101-0.469-0.043-0.053-0.107-0.101-0.181-0.128-0.069-0.027-0.149-0.037-0.229-0.027-0.080-0.011-0.16 0-0.229 0.027-0.075 0.032-0.139 0.075-0.181 0.128-0.080 0.149-0.117 0.309-0.107 0.469v1.995c-0.011 0.16 0.027 0.325 0.107 0.475 0.053 0.053 0.112 0.091 0.187 0.123 0.069 0.027 0.144 0.037 0.224 0.037 0.075 0 0.155-0.011 0.224-0.037 0.069-0.032 0.133-0.069 0.187-0.123v-0.005z"></path>
<path d="M35.733 10.624h0.944l0.704 2.981 0.725-2.981h0.917l0.091 4.309h-0.677l-0.069-2.997-0.699 2.997h-0.544l-0.725-3.008-0.069 3.008h-0.683l0.085-4.309z"></path>
<path d="M40.176 10.624h1.467c0.843 0 1.269 0.405 1.269 1.221 0 0.784-0.448 1.173-1.339 1.173h-0.501v1.915h-0.901l0.005-4.309zM41.429 12.464c0.085 0.011 0.176 0.005 0.267-0.021 0.085-0.021 0.165-0.064 0.229-0.112 0.107-0.149 0.149-0.32 0.128-0.491 0.005-0.128-0.005-0.261-0.043-0.389-0.011-0.043-0.032-0.085-0.064-0.117-0.032-0.037-0.069-0.064-0.117-0.085-0.123-0.053-0.261-0.080-0.4-0.069h-0.352v1.285h0.352z"></path>
<path d="M44.213 10.624h0.976l0.997 4.309h-0.843l-0.197-0.997h-0.869l-0.203 0.997h-0.859l0.997-4.309zM45.045 13.44l-0.336-1.808-0.341 1.808h0.677z"></path>
<path d="M46.992 10.624h0.635l1.216 2.459v-2.459h0.752v4.309h-0.603l-1.221-2.565v2.565h-0.779v-4.309z"></path>
<path d="M51.355 13.291l-1.008-2.661h0.848l0.619 1.707 0.576-1.707h0.832l-0.997 2.661v1.643h-0.869v-1.643z"></path>
<path d="M29.888 16.816v0.224h-0.736v1.749h-0.309v-1.749h-0.747v-0.224h1.792z"></path>
<path d="M32.208 18.789h-0.24c-0.027 0-0.048-0.005-0.069-0.016-0.016-0.016-0.032-0.032-0.037-0.048l-0.213-0.469h-1.024l-0.219 0.469c-0.005 0.021-0.016 0.037-0.032 0.053s-0.043 0.021-0.064 0.021h-0.24l0.907-1.979h0.315l0.917 1.968zM30.704 18.059h0.859l-0.363-0.805c-0.027-0.064-0.048-0.123-0.069-0.187-0.011 0.037-0.021 0.075-0.032 0.107l-0.032 0.080-0.363 0.805z"></path>
<path d="M33.771 18.597c0.053 0 0.112 0 0.171 0 0.048-0.005 0.096-0.016 0.144-0.027 0.043-0.005 0.085-0.021 0.128-0.032 0.043-0.016 0.080-0.032 0.123-0.053v-0.443h-0.363c-0.011 0-0.016 0-0.027 0-0.011-0.005-0.016-0.011-0.021-0.016s-0.011-0.011-0.016-0.016c0-0.005-0.005-0.011-0.005-0.016v-0.155h0.704v0.757c-0.059 0.037-0.117 0.069-0.181 0.096s-0.128 0.048-0.197 0.064c-0.075 0.021-0.155 0.032-0.229 0.043-0.085 0.005-0.176 0.011-0.261 0.011-0.16 0-0.315-0.021-0.459-0.075-0.139-0.043-0.261-0.117-0.363-0.203-0.101-0.091-0.181-0.197-0.235-0.315-0.059-0.133-0.085-0.272-0.085-0.411s0.027-0.277 0.085-0.411c0.053-0.117 0.128-0.224 0.235-0.315 0.101-0.091 0.224-0.16 0.363-0.203 0.155-0.053 0.32-0.075 0.485-0.075 0.080 0 0.165 0.005 0.251 0.016 0.075 0.011 0.144 0.027 0.213 0.053 0.064 0.016 0.128 0.043 0.181 0.075 0.059 0.032 0.112 0.064 0.16 0.107l-0.091 0.117c-0.005 0.011-0.016 0.021-0.027 0.027-0.011 0.011-0.027 0.011-0.043 0.011-0.021 0-0.037-0.005-0.053-0.011-0.027-0.016-0.059-0.032-0.091-0.048-0.037-0.021-0.080-0.043-0.123-0.053-0.053-0.021-0.107-0.037-0.165-0.043-0.075-0.016-0.155-0.021-0.229-0.021-0.123 0-0.24 0.021-0.352 0.059-0.101 0.032-0.192 0.085-0.267 0.155s-0.128 0.155-0.165 0.245c-0.080 0.213-0.080 0.443 0 0.656 0.037 0.096 0.101 0.181 0.181 0.251 0.075 0.069 0.165 0.123 0.261 0.155 0.117 0.037 0.24 0.048 0.363 0.043z"></path>
<path d="M36.656 18.565h0.992v0.224h-1.296v-1.973h0.309l-0.005 1.749z"></path>
<path d="M38.677 18.789h-0.315v-1.973h0.315v1.973z"></path>
<path d="M39.829 16.821c0.016 0.011 0.032 0.021 0.043 0.037l1.328 1.488c-0.005-0.021-0.005-0.043 0-0.069 0-0.021 0-0.043 0-0.064v-1.408h0.267v1.984h-0.155c-0.021 0-0.043 0-0.064-0.011s-0.037-0.021-0.053-0.037l-1.323-1.488c0 0.021 0 0.048 0 0.069s0 0.043 0 0.059v1.408h-0.256v-1.973h0.16c0.016 0 0.037 0 0.053 0.005z"></path>
<path d="M43.749 16.816v0.213h-1.099v0.656h0.891v0.208h-0.891v0.672h1.099v0.219h-1.419v-1.968h1.419z"></path>
<path d="M11.285 4.613l13.755 3.371v11.819l-13.755-3.371v-11.819zM10.4 3.605v13.403l15.52 3.803v-13.397l-15.52-3.808z"></path>
<path d="M18.72 27.035l-15.52-3.808v-13.403l15.52 3.808v13.403z"></path>
<path d="M10.656 4.464l13.579 3.328-5.771 4.987-13.584-3.333 5.776-4.981zM10.4 3.605l-7.2 6.219 15.52 3.808 7.2-6.219-15.52-3.808z"></path>
<path d="M19.595 26.277l6.325-5.461-6.325-1.557v7.019z"></path>
</symbol>
<symbol id="icon-Logo-5" viewBox="0 0 57 32">
<path d="M14.267 23.856c0.133 0.149 0.203 0.331 0.197 0.523 0.005 0.123-0.016 0.245-0.069 0.357-0.053 0.117-0.133 0.219-0.235 0.299-0.251 0.176-0.565 0.261-0.88 0.24h-1.547v-3.301h1.515c0.299-0.016 0.597 0.059 0.837 0.219 0.101 0.075 0.176 0.171 0.229 0.277s0.075 0.224 0.069 0.341c0.005 0.181-0.053 0.363-0.176 0.507-0.117 0.128-0.283 0.219-0.464 0.256 0.208 0.037 0.389 0.133 0.523 0.283zM12.453 23.36h0.645c0.149 0.005 0.293-0.032 0.411-0.112 0.053-0.043 0.091-0.091 0.112-0.144 0.027-0.059 0.037-0.117 0.032-0.181 0-0.059-0.005-0.117-0.032-0.171-0.021-0.059-0.059-0.107-0.107-0.149-0.123-0.085-0.272-0.123-0.427-0.112h-0.635v0.869zM13.573 24.624c0.053-0.043 0.096-0.091 0.123-0.149s0.037-0.123 0.032-0.187c0.005-0.064-0.005-0.128-0.037-0.187-0.027-0.059-0.064-0.112-0.117-0.149-0.128-0.091-0.283-0.133-0.443-0.123h-0.677v0.907h0.688c0.155 0.011 0.309-0.032 0.432-0.112z"></path>
<path d="M17.371 25.275l-0.848-1.291h-0.315v1.291h-0.725v-3.301h1.371c0.347-0.021 0.693 0.080 0.96 0.283 0.192 0.176 0.309 0.416 0.325 0.667 0.021 0.251-0.059 0.496-0.224 0.699-0.171 0.176-0.4 0.293-0.656 0.336l0.901 1.317h-0.789zM16.208 23.536h0.592c0.416 0 0.619-0.165 0.619-0.501 0.005-0.069-0.005-0.133-0.032-0.197s-0.064-0.123-0.117-0.176c-0.133-0.096-0.299-0.144-0.469-0.133h-0.597l0.005 1.008z"></path>
<path d="M21.339 24.613h-1.451l-0.256 0.661h-0.757l1.328-3.264h0.821l1.323 3.264h-0.763l-0.245-0.661zM21.141 24.112l-0.528-1.397-0.528 1.397h1.056z"></path>
<path d="M26.304 25.275h-0.72l-1.616-2.245v2.245h-0.72v-3.301h0.72l1.616 2.256v-2.256h0.72v3.301z"></path>
<path d="M30.416 24.485c-0.149 0.251-0.379 0.453-0.651 0.581-0.315 0.144-0.667 0.219-1.013 0.208h-1.285v-3.301h1.285c0.347-0.011 0.699 0.064 1.013 0.203 0.272 0.128 0.501 0.331 0.651 0.576 0.149 0.267 0.224 0.565 0.224 0.869 0 0.299-0.075 0.597-0.224 0.864zM29.589 24.405c0.208-0.219 0.32-0.496 0.32-0.789 0-0.288-0.112-0.565-0.32-0.784-0.245-0.203-0.571-0.304-0.901-0.283h-0.501v2.139h0.501c0.331 0.016 0.656-0.085 0.901-0.283z"></path>
<path d="M21.787 3.605c0 0 9.301 3.216 9.104 7.867v7.872c0 0-9.296-3.216-9.099-7.872l-0.005-7.867z"></path>
<path d="M39.179 17.499c1.755-1.104 3.787-1.792 5.904-1.995v-2.459c-2.443 0.859-4.512 2.421-5.904 4.453z"></path>
<path d="M38.123 18.24c1.435-2.651 3.931-4.693 6.965-5.712v-7.099c0 0-13.248 4.581-12.965 11.205v11.205c0 0 0.587-0.208 1.515-0.592 0-0.357 0-0.72 0.043-1.083 0.277-3.077 1.872-5.925 4.443-7.925z"></path>
<path d="M36.859 22.405c0.075-0.779 0.229-1.547 0.464-2.293-1.6 1.723-2.565 3.867-2.768 6.123-0.021 0.208-0.032 0.421-0.037 0.645 0.757-0.331 1.632-0.747 2.549-1.232-0.235-1.067-0.304-2.16-0.208-3.243z"></path>
<path d="M37.387 22.443c-0.085 0.981-0.032 1.973 0.165 2.939 3.616-1.984 7.685-5.045 7.531-8.747v-0.325c-2.587 0.267-5.008 1.301-6.885 2.949-0.443 1.019-0.715 2.091-0.811 3.184z"></path>
</symbol>
<symbol id="icon-Logo-4" viewBox="0 0 57 32">
<path d="M12.875 11.253v0c1.28 0 2.315 0.923 2.315 2.059v0c0 1.136-1.035 2.059-2.315 2.059v0c-1.28 0-2.315-0.923-2.315-2.059v0c0-1.136 1.035-2.059 2.315-2.059z"></path>
<path d="M29.968 10.592c-0.005-1.579-0.709-3.088-1.968-4.208-1.253-1.115-2.955-1.744-4.736-1.749v0c-1.776 0.005-3.477 0.635-4.736 1.749-1.253 1.12-1.963 2.629-1.968 4.208v8.709c0 0 13.408-1.328 13.408-8.704v-0.005z"></path>
<path d="M5.867 22.155c0 1.099 0.491 2.155 1.365 2.928 0.875 0.779 2.059 1.216 3.296 1.221 1.237-0.005 2.421-0.443 3.291-1.216 0.875-0.779 1.371-1.829 1.371-2.928v-6.059c0 0-9.323 0.923-9.323 6.053zM10.528 23.243c-0.24 0-0.48-0.064-0.677-0.181-0.203-0.123-0.357-0.288-0.453-0.491-0.091-0.197-0.112-0.416-0.069-0.624 0.048-0.213 0.165-0.405 0.336-0.555 0.171-0.155 0.389-0.256 0.624-0.299 0.24-0.043 0.485-0.021 0.709 0.059 0.219 0.085 0.411 0.224 0.544 0.4 0.133 0.181 0.208 0.389 0.208 0.603 0 0.144-0.032 0.288-0.091 0.421-0.064 0.128-0.155 0.251-0.267 0.352s-0.245 0.181-0.395 0.235c-0.149 0.053-0.309 0.085-0.469 0.085v-0.005z"></path>
<path d="M22.085 23.077q0.123-0.251 0.123-0.587v-0.101q0-0.336-0.123-0.592-0.091-0.192-0.24-0.32-0.048-0.037-0.101-0.075-0.048-0.027-0.096-0.048-0.187-0.085-0.411-0.085t-0.411 0.085q-0.048 0.021-0.096 0.048-0.053 0.037-0.101 0.075-0.149 0.128-0.24 0.32-0.123 0.256-0.123 0.592v0.112q0.005 0.325 0.128 0.581 0.085 0.181 0.229 0.304 0.053 0.048 0.112 0.085 0.048 0.027 0.101 0.053 0.181 0.080 0.405 0.080 0.229 0 0.416-0.091 0.048-0.021 0.091-0.048 0.059-0.037 0.117-0.085 0.133-0.123 0.219-0.304zM23.685 22.832q0.043 0.059 0.043 0.144 0 0.069-0.032 0.123-0.021 0.037-0.064 0.069-0.091 0.069-0.261 0.069-0.261 0-0.373-0.133-0.075-0.091-0.075-0.245h-0.469q0 0.165 0.064 0.299 0.021 0.048 0.048 0.091 0 0 0.005 0.005 0.112 0.16 0.325 0.256t0.475 0.096q0.379 0 0.603-0.165 0.096-0.075 0.149-0.171 0.075-0.128 0.075-0.293 0-0.149-0.059-0.272-0.043-0.096-0.123-0.171-0.187-0.181-0.587-0.299-0.213-0.069-0.325-0.144-0.080-0.053-0.101-0.123-0.011-0.032-0.011-0.064 0-0.059 0.021-0.101 0.027-0.053 0.075-0.091 0.096-0.069 0.267-0.069 0.176 0 0.277 0.085 0.021 0.021 0.043 0.048 0.053 0.080 0.053 0.197h0.469q0-0.144-0.048-0.261-0.027-0.053-0.059-0.107-0.021-0.032-0.048-0.064-0.096-0.117-0.245-0.187-0.192-0.085-0.437-0.085-0.24 0-0.437 0.080-0.192 0.080-0.299 0.224-0.043 0.059-0.064 0.128-0.037 0.096-0.037 0.203t0.032 0.203q0.085 0.213 0.357 0.363 0.139 0.075 0.384 0.155t0.336 0.149q0.032 0.027 0.053 0.059zM41.989 22.832q0.043 0.059 0.043 0.144 0 0.069-0.032 0.123-0.021 0.037-0.064 0.069-0.096 0.069-0.261 0.069-0.261 0-0.373-0.133-0.075-0.091-0.075-0.245h-0.469q0 0.165 0.059 0.299 0.021 0.048 0.053 0.091 0 0 0.005 0.005 0.112 0.16 0.32 0.256 0.219 0.096 0.48 0.096 0.379 0 0.603-0.165 0.096-0.075 0.149-0.171 0.075-0.128 0.075-0.293 0-0.149-0.059-0.272-0.048-0.096-0.123-0.171-0.187-0.181-0.587-0.299-0.213-0.069-0.325-0.144-0.080-0.053-0.107-0.123-0.005-0.032-0.005-0.064 0-0.059 0.021-0.101 0.021-0.053 0.075-0.091 0.091-0.069 0.267-0.069t0.272 0.085q0.027 0.021 0.048 0.048 0.053 0.080 0.053 0.197h0.469q0-0.144-0.053-0.261-0.021-0.053-0.053-0.107-0.021-0.032-0.048-0.064-0.096-0.117-0.245-0.187-0.192-0.085-0.437-0.085-0.24 0-0.437 0.080-0.192 0.080-0.299 0.224-0.043 0.059-0.064 0.128-0.037 0.096-0.037 0.203t0.032 0.203q0.085 0.213 0.352 0.363 0.144 0.075 0.389 0.155 0.24 0.080 0.336 0.149 0.032 0.027 0.053 0.059zM19.056 22.645h0.896v-0.379h-0.896v-0.587h1.008v-0.379h-1.477v2.272h0.469v-0.928zM25.531 21.68h0.699v-0.379h-1.856v0.379h0.688v1.893h0.469v-1.893zM26.965 22.587h0.896v-0.368h-0.896v-0.539h1.051v-0.379h-1.52v2.272h1.525v-0.373h-1.056v-0.613zM28.763 22.741h0.373l0.427 0.832h0.501v-0.021l-0.491-0.928q0.203-0.091 0.304-0.251 0.101-0.155 0.101-0.384t-0.107-0.389q-0.043-0.064-0.112-0.123-0.219-0.176-0.619-0.176h-0.848v2.272h0.469v-0.832zM31.6 23.573v-0.8h0.411q0.405 0 0.635-0.192 0.080-0.069 0.133-0.155 0.096-0.155 0.096-0.373 0-0.176-0.064-0.32-0.016-0.037-0.037-0.075-0.032-0.048-0.075-0.096-0.091-0.101-0.229-0.171-0.192-0.091-0.448-0.091h-0.891v2.272h0.469zM33.664 22.587h0.901v-0.368h-0.901v-0.539h1.056v-0.379h-1.525v2.272h1.525v-0.373h-1.056v-0.613zM36.043 21.68h0.699v-0.379h-1.856v0.379h0.688v1.893h0.469v-1.893zM37.477 22.587h0.901v-0.368h-0.901v-0.539h1.051v-0.379h-1.52v2.272h1.525v-0.373h-1.056v-0.613zM39.275 22.741h0.373l0.427 0.832h0.507v-0.021l-0.496-0.928q0.208-0.091 0.309-0.251 0.101-0.155 0.101-0.384t-0.107-0.389q-0.048-0.064-0.112-0.123-0.219-0.176-0.624-0.176h-0.843v2.272h0.464v-0.832zM21.605 21.84q0.128 0.187 0.128 0.544v0.112q-0.005 0.357-0.128 0.539-0.059 0.085-0.133 0.128-0.101 0.059-0.229 0.059-0.133 0-0.229-0.059-0.085-0.048-0.139-0.133-0.128-0.192-0.128-0.539v-0.112q0-0.357 0.128-0.539 0.053-0.080 0.133-0.128 0.096-0.059 0.229-0.059t0.229 0.059q0.080 0.048 0.139 0.128zM29.141 22.363h-0.379v-0.683h0.379q0.187 0 0.277 0.091 0.016 0.016 0.027 0.032 0.064 0.085 0.064 0.224 0 0.117-0.053 0.197-0.021 0.027-0.043 0.048 0 0-0.005 0.005-0.096 0.085-0.267 0.085zM32.021 22.395h-0.421v-0.715h0.432q0.139 0 0.229 0.069 0.021 0.016 0.043 0.037t0.037 0.048q0.059 0.091 0.059 0.219 0 0.133-0.059 0.213-0.016 0.021-0.037 0.037-0.096 0.091-0.283 0.091zM39.653 22.363h-0.379v-0.683h0.379q0.187 0 0.283 0.091 0.011 0.016 0.021 0.032 0.069 0.085 0.069 0.224 0 0.117-0.059 0.197-0.016 0.027-0.037 0.048-0.005 0-0.005 0.005-0.096 0.085-0.272 0.085z"></path>
</symbol>
<symbol id="icon-Logo-3" viewBox="0 0 57 32">
<path d="M19.413 26.187c0.011 0 0.016 0 0.027 0.005 0.005 0 0.011 0.005 0.021 0.011l0.112 0.112c-0.091 0.091-0.197 0.16-0.325 0.208-0.144 0.053-0.304 0.080-0.464 0.080-0.149 0-0.299-0.021-0.437-0.075-0.123-0.043-0.235-0.112-0.325-0.197-0.096-0.091-0.165-0.197-0.213-0.309-0.053-0.128-0.075-0.261-0.075-0.395s0.027-0.272 0.080-0.395c0.048-0.117 0.128-0.224 0.224-0.309 0.101-0.091 0.219-0.155 0.352-0.203 0.139-0.048 0.293-0.075 0.448-0.069 0.144-0.005 0.283 0.016 0.416 0.064 0.117 0.043 0.224 0.101 0.315 0.176l-0.101 0.123c-0.005 0.005-0.011 0.011-0.021 0.021-0.011 0.005-0.027 0.005-0.043 0.005-0.011 0-0.027-0.005-0.037-0.011l-0.053-0.032-0.075-0.043c-0.032-0.011-0.064-0.027-0.096-0.037-0.043-0.016-0.091-0.021-0.133-0.032-0.059-0.011-0.117-0.011-0.171-0.011-0.112-0.005-0.224 0.016-0.325 0.053-0.096 0.032-0.181 0.080-0.251 0.149-0.075 0.069-0.128 0.149-0.165 0.235-0.043 0.101-0.064 0.208-0.059 0.315-0.005 0.107 0.016 0.213 0.059 0.32 0.032 0.085 0.091 0.165 0.16 0.235 0.069 0.064 0.149 0.112 0.24 0.144 0.096 0.037 0.197 0.053 0.304 0.053 0.059 0 0.117-0.005 0.176-0.011 0.096-0.011 0.187-0.037 0.267-0.085 0.043-0.021 0.080-0.048 0.117-0.080 0.016-0.011 0.032-0.016 0.053-0.016z"></path>
<path d="M22.773 25.627c0 0.133-0.027 0.267-0.080 0.395-0.048 0.112-0.123 0.213-0.219 0.304-0.096 0.085-0.213 0.155-0.341 0.197-0.288 0.096-0.603 0.096-0.885 0-0.128-0.043-0.245-0.112-0.341-0.197-0.096-0.091-0.171-0.197-0.224-0.309-0.101-0.256-0.101-0.533 0-0.789 0.053-0.112 0.128-0.219 0.224-0.309 0.096-0.085 0.213-0.149 0.341-0.192 0.283-0.096 0.597-0.096 0.885 0 0.128 0.048 0.245 0.112 0.341 0.203 0.096 0.085 0.171 0.192 0.219 0.304 0.053 0.123 0.080 0.261 0.080 0.395zM22.469 25.627c0-0.107-0.016-0.213-0.059-0.315-0.032-0.091-0.085-0.171-0.155-0.24-0.069-0.064-0.149-0.112-0.245-0.149-0.208-0.069-0.437-0.069-0.64 0-0.096 0.037-0.181 0.085-0.251 0.149-0.069 0.069-0.123 0.149-0.155 0.24-0.075 0.203-0.075 0.427 0 0.629 0.032 0.085 0.085 0.171 0.155 0.235 0.069 0.069 0.155 0.117 0.251 0.149 0.203 0.069 0.432 0.069 0.64 0 0.096-0.032 0.176-0.080 0.245-0.149 0.069-0.064 0.123-0.149 0.155-0.235 0.043-0.101 0.059-0.208 0.059-0.315z"></path>
<path d="M25.067 25.957l0.027 0.069c0.016-0.021 0.021-0.048 0.037-0.069 0.011-0.021 0.021-0.048 0.037-0.069l0.741-1.173c0.016-0.021 0.027-0.032 0.043-0.037 0.021-0.005 0.043-0.005 0.059-0.005h0.224v1.909h-0.261v-1.403c0-0.021 0-0.043 0-0.064s0-0.043 0-0.064l-0.747 1.189c-0.011 0.021-0.027 0.032-0.048 0.043-0.016 0.011-0.037 0.016-0.064 0.016h-0.037c-0.027 0-0.048-0.005-0.064-0.016-0.021-0.011-0.037-0.021-0.048-0.043l-0.768-1.195c0 0.021 0 0.043 0 0.069 0 0.021 0 0.043 0 0.059v1.403h-0.251v-1.904h0.219c0.021 0 0.043 0 0.064 0.005 0.016 0.005 0.032 0.021 0.037 0.037l0.763 1.173c0.011 0.021 0.027 0.048 0.037 0.069z"></path>
<path d="M27.861 25.861v0.715h-0.293v-1.904h0.651c0.123-0.005 0.245 0.011 0.363 0.043 0.096 0.021 0.181 0.064 0.256 0.117 0.064 0.053 0.112 0.117 0.144 0.187 0.037 0.080 0.053 0.16 0.048 0.245 0.005 0.080-0.016 0.165-0.053 0.24-0.032 0.075-0.085 0.139-0.155 0.192-0.075 0.059-0.165 0.101-0.256 0.128-0.117 0.032-0.235 0.048-0.352 0.043l-0.352-0.005zM27.861 25.659h0.352c0.075 0 0.155-0.011 0.224-0.032 0.059-0.016 0.117-0.043 0.165-0.080 0.043-0.037 0.075-0.080 0.096-0.128 0.027-0.048 0.037-0.101 0.037-0.16 0-0.053-0.005-0.107-0.032-0.155-0.021-0.048-0.053-0.091-0.101-0.128-0.112-0.075-0.251-0.112-0.389-0.107h-0.352v0.789z"></path>
<path d="M31.771 26.581h-0.229c-0.027 0-0.048-0.005-0.064-0.021-0.016-0.011-0.032-0.027-0.037-0.043l-0.197-0.459h-0.997l-0.203 0.459c-0.011 0.016-0.021 0.032-0.037 0.043-0.016 0.016-0.043 0.021-0.064 0.021h-0.229l0.869-1.909h0.304l0.885 1.909zM30.331 25.872h0.821l-0.347-0.779c-0.027-0.059-0.048-0.117-0.064-0.176l-0.037 0.096c-0.011 0.032-0.021 0.059-0.032 0.080l-0.341 0.779z"></path>
<path d="M33.024 24.677c0.021 0.011 0.032 0.021 0.048 0.037l1.269 1.44c0-0.027 0-0.048 0-0.069s0-0.043 0-0.064v-1.349h0.261v1.909h-0.144c-0.021 0-0.043-0.005-0.064-0.011-0.016-0.011-0.032-0.021-0.043-0.037l-1.275-1.44c0.005 0.027 0.005 0.048 0 0.069 0 0.021 0 0.037 0 0.059v1.36h-0.256v-1.909h0.155c0.016 0 0.032 0 0.048 0.005z"></path>
<path d="M36.747 25.819v0.763h-0.293v-0.763l-0.8-1.147h0.256c0.027 0 0.048 0.005 0.064 0.016s0.027 0.027 0.037 0.043l0.507 0.741c0.021 0.032 0.037 0.059 0.053 0.091 0.011 0.027 0.021 0.053 0.032 0.080l0.037-0.085c0.016-0.027 0.032-0.059 0.053-0.085l0.496-0.747c0.011-0.016 0.021-0.027 0.037-0.043 0.016-0.011 0.037-0.016 0.064-0.016h0.261l-0.805 1.152z"></path>
<path d="M24.923 21.467c0.123 0.016 0.251 0.027 0.384 0.037 1.957-0.763 3.621-2.011 4.768-3.589 1.152-1.579 1.744-3.413 1.696-5.28l-2.16-1.883c0.437 1.989 0.235 4.043-0.597 5.936-0.827 1.893-2.245 3.547-4.091 4.779z"></path>
<path d="M24.149 21.381l0.059 0.011c1.973-1.232 3.483-2.944 4.32-4.923 0.843-1.979 0.981-4.133 0.4-6.181l-3.077-2.677c1.243 2.203 1.744 4.661 1.445 7.099s-1.392 4.752-3.147 6.672z"></path>
<path d="M34.592 14.837c-0.523 2.053-1.792 3.904-3.621 5.275-0.533 0.405-1.109 0.763-1.723 1.077 1.488-0.384 2.859-1.056 4.005-1.968 1.141-0.912 2.027-2.043 2.587-3.301l-1.248-1.083z"></path>
<path d="M34.101 14.539l-1.776-1.547c-0.032 1.76-0.608 3.483-1.669 4.987-1.061 1.499-2.56 2.731-4.352 3.557h0.011c0.395 0 0.795-0.021 1.189-0.064 1.675-0.592 3.152-1.536 4.304-2.747s1.941-2.651 2.293-4.187z"></path>
<path d="M24.405 6.485l-2.123-1.851c-1.893 0.64-3.525 1.76-4.677 3.216s-1.771 3.179-1.776 4.944v0c0.005 1.952 0.763 3.845 2.144 5.381 1.387 1.541 3.323 2.629 5.504 3.104 1.947-2.059 3.083-4.608 3.253-7.269 0.165-2.656-0.651-5.296-2.325-7.525z"></path>
<path d="M39.008 14.251c-0.011-2.315-1.072-4.533-2.96-6.171-1.883-1.637-4.437-2.56-7.104-2.571-1.232 0-2.453 0.197-3.6 0.587l12.992 11.285c0.443-0.997 0.672-2.059 0.672-3.131z"></path>
</symbol>
<symbol id="icon-Logo-2" viewBox="0 0 57 32">
<path d="M26.654 3.165h0.073c0.135 0 0.281 0.014 0.425 0.026 0.636 0.045 1.268 0.14 1.889 0.285v-1.527c-0.64-0.16-1.292-0.264-1.95-0.311-0.25-0.019-0.515-0.031-0.788-0.038h-0.228c-1.32 0.005-2.634 0.174-3.913 0.505-1.456 0.363-2.854 0.932-4.151 1.689v15.145c1.25-0.679 2.579-1.197 3.957-1.542 1.088-0.278 2.201-0.448 3.322-0.51h0.045c0.188-0.009 0.375-0.015 0.568-0.016v-1.551c-1.457 0.019-2.906 0.211-4.317 0.574-0.522 0.136-1.027 0.282-1.5 0.445l-0.54 0.183v-11.809l0.231-0.111c1.761-0.835 3.665-1.321 5.609-1.431 0.016-0.001 0.032-0.001 0.049 0 0.215-0.011 0.43-0.016 0.642-0.016h0.243c0.112 0.003 0.224 0.005 0.336 0.012zM29.415 4.726c0.339 0.026 0.689 0.038 1.044 0.038 1.388-0.005 2.769-0.182 4.114-0.528 1.378-0.346 2.706-0.865 3.956-1.543v14.875c-1.298 0.756-2.696 1.325-4.153 1.688-1.279 0.329-2.593 0.498-3.913 0.503-1 0.008-1.997-0.11-2.968-0.35v-14.971c0.229 0.053 0.465 0.102 0.706 0.142 0.394 0.066 0.809 0.115 1.214 0.145zM36.985 4.841l-0.54 0.182c-0.497 0.167-0.997 0.316-1.5 0.449-1.465 0.376-2.971 0.57-4.483 0.575-0.352 0-0.676-0.009-0.989-0.030l-0.43-0.028v12.148l0.37 0.033c0.343 0.030 0.696 0.045 1.052 0.045 1.191-0.005 2.377-0.159 3.531-0.457 0.95-0.238 1.874-0.57 2.759-0.991l0.231-0.111v-11.813z"></path>
<path d="M19.056 24.112c-0.075-0.080-0.171-0.144-0.272-0.187-0.107-0.043-0.213-0.064-0.325-0.059-0.123 0-0.24 0.021-0.347 0.064-0.101 0.043-0.197 0.101-0.272 0.181-0.075 0.075-0.133 0.171-0.176 0.272-0.043 0.107-0.059 0.219-0.059 0.331v2.027c-0.005 0.144 0.021 0.283 0.080 0.416 0.048 0.101 0.117 0.192 0.203 0.267 0.080 0.069 0.176 0.117 0.277 0.144 0.096 0.032 0.197 0.043 0.299 0.043 0.117 0.005 0.224-0.021 0.331-0.069 0.101-0.043 0.192-0.107 0.267-0.187s0.139-0.171 0.176-0.272c0.043-0.101 0.069-0.213 0.069-0.32v-0.229h-0.533v0.181c0.005 0.064-0.005 0.123-0.027 0.181-0.021 0.043-0.048 0.080-0.080 0.112-0.032 0.027-0.069 0.048-0.112 0.059-0.032 0.011-0.069 0.021-0.107 0.021-0.048 0.005-0.096-0.005-0.139-0.021-0.048-0.021-0.085-0.048-0.112-0.091-0.048-0.080-0.075-0.176-0.069-0.272v-1.883c-0.005-0.107 0.016-0.208 0.064-0.304 0.027-0.043 0.064-0.075 0.112-0.096s0.096-0.032 0.149-0.027c0.043 0 0.091 0.011 0.128 0.027 0.043 0.021 0.080 0.053 0.107 0.091 0.059 0.075 0.091 0.171 0.085 0.267v0.176h0.523v-0.203c0.005-0.123-0.016-0.245-0.064-0.357-0.037-0.107-0.096-0.203-0.176-0.283z"></path>
<path d="M22.197 24.085c-0.165-0.139-0.379-0.219-0.597-0.219-0.112 0-0.219 0.016-0.32 0.053s-0.197 0.096-0.277 0.165c-0.085 0.080-0.16 0.176-0.203 0.288-0.053 0.123-0.080 0.256-0.080 0.389v1.941c-0.005 0.139 0.021 0.272 0.080 0.395 0.048 0.107 0.117 0.197 0.203 0.272 0.080 0.075 0.176 0.133 0.277 0.171s0.208 0.059 0.32 0.059c0.107 0 0.213-0.021 0.315-0.059s0.203-0.096 0.283-0.171c0.085-0.075 0.155-0.165 0.203-0.272 0.053-0.123 0.080-0.256 0.075-0.395v-1.941c0.005-0.133-0.021-0.267-0.075-0.389-0.048-0.107-0.117-0.208-0.203-0.288zM21.952 26.704c0.005 0.053 0 0.101-0.021 0.155-0.016 0.048-0.048 0.091-0.085 0.128-0.069 0.059-0.155 0.091-0.245 0.091s-0.181-0.032-0.251-0.091c-0.037-0.037-0.064-0.080-0.085-0.128-0.016-0.053-0.027-0.101-0.021-0.155v-1.941c-0.005-0.053 0.005-0.101 0.021-0.155 0.021-0.048 0.048-0.091 0.085-0.128 0.069-0.059 0.16-0.091 0.251-0.091s0.176 0.032 0.245 0.091c0.037 0.037 0.069 0.080 0.085 0.128 0.021 0.053 0.027 0.101 0.021 0.155v1.941z"></path>
<path d="M26.325 27.568v-3.669h-0.507l-0.667 1.941h-0.011l-0.672-1.941h-0.507v3.669h0.528v-2.235h0.005l0.517 1.584h0.261l0.517-1.584h0.011v2.235h0.523z"></path>
<path d="M29.307 24.155c-0.080-0.091-0.181-0.16-0.293-0.203-0.123-0.037-0.251-0.059-0.384-0.053h-0.779v3.669h0.523v-1.435h0.272c0.16 0.011 0.325-0.027 0.469-0.096 0.123-0.069 0.219-0.165 0.288-0.283 0.064-0.096 0.101-0.208 0.123-0.32 0.021-0.139 0.027-0.277 0.027-0.416 0.005-0.176-0.011-0.357-0.053-0.528-0.032-0.128-0.101-0.24-0.192-0.336zM29.040 25.275c-0.005 0.064-0.021 0.133-0.048 0.192-0.032 0.053-0.080 0.101-0.139 0.128-0.075 0.032-0.16 0.048-0.245 0.048h-0.24v-1.253h0.272c0.080 0 0.16 0.016 0.235 0.048 0.053 0.032 0.096 0.080 0.123 0.133 0.027 0.069 0.043 0.139 0.048 0.208 0 0.075 0 0.16 0 0.245s0.005 0.171 0 0.251h-0.005z"></path>
<path d="M31.787 23.899h-0.427l-0.811 3.669h0.523l0.155-0.789h0.715l0.155 0.789h0.523l-0.832-3.669zM31.307 26.283l0.256-1.333h0.011l0.256 1.333h-0.523z"></path>
<path d="M35.168 26.112h-0.005l-0.795-2.213h-0.501v3.669h0.523v-2.208h0.011l0.8 2.208h0.496v-3.669h-0.528v2.213z"></path>
<path d="M38.368 23.899l-0.421 1.456h-0.011l-0.421-1.456h-0.555l0.72 2.117v1.552h0.523v-1.552l0.72-2.117h-0.555z"></path>
<path d="M17.6 28.608h0.251v0.709h0.171v-0.709h0.251v-0.144h-0.672v0.144z"></path>
<path d="M19.717 28.464l-0.331 0.853h0.181l0.075-0.197h0.336l0.075 0.197h0.187l-0.341-0.853h-0.181zM19.691 28.976l0.117-0.315 0.117 0.315h-0.235z"></path>
<path d="M21.813 29.003h0.197v0.107c-0.059 0.048-0.128 0.075-0.203 0.075-0.032 0-0.069-0.005-0.101-0.021-0.027-0.011-0.059-0.032-0.080-0.059-0.043-0.069-0.064-0.144-0.064-0.224 0-0.192 0.085-0.288 0.251-0.288 0.043 0 0.085 0.011 0.117 0.032 0.037 0.027 0.064 0.064 0.075 0.107l0.165-0.032c-0.032-0.171-0.155-0.251-0.357-0.251-0.112-0.005-0.219 0.037-0.299 0.107-0.043 0.043-0.080 0.096-0.101 0.155-0.021 0.053-0.027 0.117-0.021 0.176-0.005 0.117 0.032 0.229 0.107 0.32 0.043 0.043 0.091 0.075 0.149 0.096 0.053 0.021 0.117 0.032 0.176 0.027 0.133 0.005 0.261-0.043 0.363-0.133v-0.336h-0.373v0.144z"></path>
<path d="M23.957 28.464h-0.176v0.853h0.597v-0.144h-0.421v-0.709z"></path>
<path d="M25.595 28.464h0.171v0.853h-0.171v-0.853z"></path>
<path d="M27.536 29.035l-0.347-0.571h-0.171v0.853h0.16v-0.56l0.347 0.56h0.171v-0.853h-0.16v0.571z"></path>
<path d="M29.136 28.939h0.427v-0.144h-0.427v-0.187h0.459v-0.144h-0.629v0.853h0.645v-0.144h-0.475v-0.235z"></path>
<path d="M33.019 28.8h-0.336v-0.336h-0.171v0.853h0.171v-0.373h0.336v0.373h0.171v-0.853h-0.171v0.336z"></path>
<path d="M34.629 28.939h0.421v-0.144h-0.421v-0.187h0.459v-0.144h-0.635v0.853h0.651v-0.144h-0.475v-0.235z"></path>
<path d="M36.811 28.939c0.149-0.021 0.224-0.101 0.224-0.235 0.005-0.037 0-0.075-0.016-0.107s-0.037-0.064-0.069-0.085c-0.075-0.037-0.165-0.053-0.251-0.048h-0.357v0.853h0.171v-0.357h0.032c0.037-0.005 0.075 0.005 0.107 0.016 0.027 0.016 0.048 0.037 0.059 0.064l0.187 0.272h0.208l-0.107-0.165c-0.043-0.085-0.112-0.155-0.187-0.208zM36.635 28.821h-0.123v-0.213h0.133c0.059-0.005 0.117 0 0.176 0.021 0.011 0.011 0.021 0.021 0.027 0.037s0.011 0.032 0.011 0.048c-0.005 0.021-0.005 0.037-0.016 0.048-0.005 0.016-0.016 0.027-0.032 0.037-0.053 0.021-0.117 0.027-0.176 0.021z"></path>
<path d="M38.453 28.939h0.427v-0.144h-0.427v-0.187h0.459v-0.144h-0.629v0.853h0.651v-0.144h-0.48v-0.235z"></path>
</symbol>
<symbol id="icon-Logo-1" viewBox="0 0 57 32">
<path d="M20.267 3.733l3.738 3.538-6.938-0.004v17.166h18.133v-6.564l3.733 3.534v-17.671h-18.667zM35.036 7.423v10.032l-10.597-10.032h10.597zM31.746 21.923h-11.81v-11.545h0.835v10.764h10.975v0.782zM25.531 27.708c-0.048 0.073-0.072 0.153-0.072 0.241 0 0.16 0.056 0.29 0.168 0.389s0.263 0.148 0.451 0.148q0.211 0 0.378-0.086 0.056-0.029 0.107-0.067l0.107 0.126h0.367l-0.279-0.329q0.164-0.224 0.164-0.574h-0.275c0 0.128-0.026 0.243-0.079 0.348l-0.366-0.432 0.129-0.094c0.091-0.066 0.157-0.132 0.197-0.198s0.060-0.14 0.060-0.219q0-0.090-0.033-0.165t-0.1-0.136c-0.088-0.082-0.201-0.122-0.339-0.122-0.153 0-0.274 0.043-0.365 0.13s-0.135 0.203-0.135 0.352c0 0.061 0.014 0.124 0.043 0.189s0.081 0.144 0.155 0.237c-0.141 0.101-0.235 0.188-0.283 0.262zM29.132 28.317c0.13-0.114 0.205-0.272 0.224-0.474h-0.328c-0.017 0.135-0.059 0.232-0.124 0.29s-0.162 0.087-0.292 0.087c-0.141 0-0.249-0.054-0.323-0.162q-0.109-0.161-0.109-0.469v-0.168c0.002-0.202 0.041-0.355 0.117-0.46s0.188-0.158 0.331-0.158c0.123 0 0.217 0.030 0.28 0.091s0.104 0.158 0.12 0.294h0.328c-0.021-0.207-0.095-0.368-0.223-0.482s-0.296-0.171-0.505-0.171c-0.155 0-0.292 0.037-0.411 0.111s-0.209 0.179-0.272 0.315-0.095 0.294-0.095 0.473v0.177c0.003 0.174 0.035 0.328 0.098 0.46s0.151 0.234 0.266 0.306c0.115 0.071 0.249 0.107 0.4 0.107 0.216 0 0.389-0.056 0.52-0.169zM31.068 28.051c0.064-0.141 0.096-0.304 0.096-0.49v-0.105c-0.001-0.185-0.034-0.347-0.099-0.486q-0.075-0.162-0.199-0.264-0.037-0.031-0.078-0.056c-0.119-0.075-0.256-0.112-0.41-0.112s-0.292 0.038-0.411 0.113q-0.032 0.020-0.062 0.043-0.135 0.107-0.216 0.281c-0.065 0.141-0.098 0.305-0.098 0.49v0.107c0.001 0.181 0.034 0.342 0.099 0.48s0.159 0.246 0.279 0.322c0.121 0.075 0.258 0.112 0.411 0.112 0.155 0 0.292-0.037 0.411-0.112s0.212-0.183 0.276-0.323zM22.725 26.564l-0.436 0.898-0.436-0.898h-0.366l0.637 1.198v0.698h0.331v-0.698l0.635-1.198h-0.365zM23.273 28.46l0.154-0.441h0.734l0.155 0.441h0.344l-0.717-1.896h-0.296l-0.716 1.896h0.342zM26.046 27.287c-0.089-0.11-0.134-0.202-0.134-0.275 0-0.063 0.018-0.116 0.055-0.158s0.085-0.062 0.147-0.062c0.057 0 0.105 0.018 0.142 0.053s0.056 0.077 0.056 0.126c0 0.075-0.027 0.136-0.081 0.184l-0.040 0.033-0.145 0.099zM30.716 26.98c0.080 0.112 0.12 0.273 0.12 0.483v0.099c0 0.214-0.040 0.376-0.119 0.487s-0.19 0.167-0.336 0.167c-0.144 0-0.257-0.057-0.339-0.171s-0.121-0.275-0.121-0.483v-0.109c0.002-0.204 0.043-0.361 0.122-0.473s0.192-0.168 0.335-0.168c0.146 0 0.258 0.056 0.337 0.168zM23.794 26.967l0.275 0.786h-0.549l0.275-0.786zM26.386 28.127c-0.093 0.071-0.193 0.107-0.299 0.107q-0.115 0-0.193-0.054-0.018-0.012-0.034-0.028c-0.056-0.055-0.085-0.126-0.085-0.214 0-0.102 0.052-0.192 0.156-0.271l0.040-0.029 0.414 0.488z"></path>
</symbol>
<symbol id="icon-linkedin" viewBox="0 0 32 32">
<path d="M31.984 32v-0.016h0.016v-11.728c0-5.744-1.248-10.16-7.952-10.16-3.232 0-5.392 1.76-6.272 3.44h-0.096v-2.912h-6.368v21.36h6.624v-10.576c0-2.784 0.528-5.472 3.984-5.472 3.392 0 3.44 3.184 3.44 5.648v10.416h6.624z"></path>
<path d="M0.528 10.624h6.624v21.36h-6.624v-21.36z"></path>
<path d="M3.84 0c-2.128 0-3.84 1.712-3.84 3.84 0 2.112 1.712 3.872 3.84 3.872 2.112 0 3.84-1.76 3.84-3.872 0-2.128-1.728-3.84-3.84-3.84v0z"></path>
</symbol>
<symbol id="icon-facebook" viewBox="0 0 32 32">
<path d="M21.328 5.312h2.912v-5.088c-0.496-0.080-2.24-0.224-4.256-0.224-4.208 0-7.088 2.64-7.088 7.504v4.496h-4.656v5.68h4.656v14.32h5.696v-14.32h4.464l0.704-5.68h-5.168v-3.92c0-1.648 0.432-2.768 2.736-2.768z"></path>
</symbol>
<symbol id="icon-twitter" viewBox="0 0 32 32">
<path d="M32 6.064c-1.2 0.528-2.464 0.88-3.792 1.040 1.36-0.816 2.4-2.080 2.896-3.632-1.28 0.768-2.672 1.296-4.16 1.6-1.216-1.28-2.928-2.080-4.8-2.080-3.632 0-6.56 2.944-6.56 6.56 0 0.528 0.048 1.024 0.16 1.504-5.456-0.272-10.288-2.88-13.52-6.864-0.576 0.976-0.896 2.096-0.896 3.312 0 2.272 1.168 4.288 2.912 5.456-1.056-0.016-2.096-0.336-2.96-0.816 0 0.016 0 0.048 0 0.080 0 3.184 2.272 5.84 5.248 6.448-0.528 0.144-1.12 0.208-1.712 0.208-0.432 0-0.848-0.016-1.248-0.112 0.848 2.608 3.264 4.512 6.128 4.576-2.224 1.744-5.072 2.8-8.128 2.8-0.544 0-1.056-0.032-1.568-0.096 2.896 1.872 6.336 2.944 10.064 2.944 12.064 0 18.656-10 18.656-18.672 0-0.288 0-0.56-0.016-0.848 1.296-0.928 2.4-2.080 3.296-3.408z"></path>
</symbol>
<symbol id="icon-instagram" viewBox="0 0 32 32">
<path d="M31.968 9.408c-0.080-1.712-0.352-2.88-0.752-3.888-0.4-1.072-1.024-2.032-1.856-2.848-0.8-0.8-1.76-1.44-2.832-1.84-1.008-0.384-2.176-0.672-3.872-0.736-1.712-0.080-2.256-0.096-6.608-0.096-4.336 0-4.88 0.016-6.592 0.080-1.696 0.080-2.864 0.352-3.888 0.752-1.072 0.4-2.032 1.024-2.832 1.84-0.816 0.816-1.44 1.776-1.84 2.832-0.4 1.024-0.672 2.192-0.752 3.888-0.080 1.712-0.096 2.256-0.096 6.608 0 4.336 0.016 4.88 0.096 6.592 0.080 1.696 0.352 2.864 0.736 3.888 0.416 1.072 1.040 2.032 1.856 2.832 0.8 0.816 1.776 1.44 2.832 1.84 1.024 0.4 2.176 0.672 3.888 0.752 1.696 0.064 2.24 0.080 6.592 0.080 4.336 0 4.88-0.016 6.592-0.080 1.696-0.080 2.864-0.352 3.888-0.752 2.144-0.832 3.84-2.528 4.672-4.672 0.4-1.024 0.672-2.192 0.752-3.888 0.064-1.712 0.096-2.256 0.096-6.592 0-4.352-0.016-4.896-0.080-6.592zM29.072 22.464c-0.064 1.568-0.32 2.4-0.544 2.976-0.544 1.392-1.648 2.496-3.040 3.040-0.56 0.208-1.408 0.48-2.96 0.544-1.696 0.080-2.208 0.096-6.464 0.096-4.272 0-4.784-0.016-6.464-0.096-1.568-0.064-2.416-0.336-2.976-0.544-0.688-0.256-1.328-0.672-1.84-1.2-0.528-0.528-0.928-1.152-1.184-1.84-0.224-0.56-0.496-1.408-0.56-2.976-0.080-1.68-0.096-2.192-0.096-6.464 0-4.256 0.016-4.768 0.096-6.464 0.064-1.552 0.336-2.4 0.56-2.96 0.256-0.688 0.656-1.328 1.2-1.84 0.512-0.528 1.136-0.944 1.824-1.2 0.576-0.208 1.424-0.48 2.976-0.544 1.68-0.080 2.192-0.096 6.464-0.096s4.784 0.016 6.464 0.096c1.568 0.064 2.4 0.336 2.976 0.544 0.688 0.256 1.312 0.672 1.824 1.2 0.544 0.512 0.944 1.152 1.2 1.84 0.224 0.56 0.48 1.408 0.544 2.96 0.080 1.696 0.096 2.208 0.096 6.464 0 4.272-0.016 4.784-0.096 6.464z"></path>
<path d="M16.048 7.776c-4.528 0-8.224 3.68-8.224 8.224 0 4.528 3.696 8.208 8.224 8.208 4.544 0 8.224-3.68 8.224-8.208 0-4.544-3.68-8.224-8.224-8.224zM16.048 21.328c-2.944 0-5.328-2.384-5.328-5.328s2.384-5.344 5.328-5.344c2.944 0 5.328 2.4 5.328 5.344s-2.384 5.328-5.328 5.328z"></path>
<path d="M26.512 7.456c0 1.056-0.848 1.92-1.92 1.92-1.056 0-1.92-0.864-1.92-1.92 0-1.072 0.864-1.92 1.92-1.92 1.072 0 1.92 0.848 1.92 1.92z"></path>
</symbol>
<symbol id="icon-astronaut" viewBox="0 0 32 32">
<path fill="#2196f3" style="fill: var(--color2, #2196f3)" d="M31.973 4.521c-0.064-0.192-0.229-0.334-0.43-0.361l-1.911-0.279-0.855-1.733c-0.178-0.361-0.777-0.361-0.955 0l-0.855 1.733-1.911 0.279c-0.201 0.027-0.37 0.169-0.434 0.361-0.059 0.192-0.009 0.407 0.137 0.549l1.381 1.349-0.325 1.902c-0.032 0.201 0.050 0.402 0.21 0.521 0.169 0.119 0.384 0.137 0.562 0.041l1.71-0.901 1.71 0.901c0.078 0.041 0.165 0.059 0.247 0.059 0.11 0 0.224-0.032 0.315-0.101 0.165-0.119 0.247-0.32 0.21-0.521l-0.325-1.902 1.381-1.349c0.146-0.142 0.197-0.357 0.137-0.549zM29.509 5.847c-0.123 0.123-0.183 0.302-0.151 0.475l0.187 1.111-1.001-0.526c-0.078-0.041-0.16-0.059-0.247-0.059s-0.169 0.018-0.247 0.059l-1.001 0.526 0.192-1.111c0.027-0.174-0.027-0.352-0.155-0.475l-0.809-0.786 1.12-0.165c0.174-0.023 0.325-0.133 0.402-0.293l0.498-1.010 0.498 1.010c0.078 0.16 0.229 0.27 0.402 0.293l1.12 0.165-0.809 0.786z"></path>
<path fill="#2196f3" style="fill: var(--color2, #2196f3)" d="M25.065 20.521h1.065v1.065h-1.065v-1.065z"></path>
<path fill="#2196f3" style="fill: var(--color2, #2196f3)" d="M25.065 22.651h1.065v1.070h-1.065v-1.070z"></path>
<path fill="#2196f3" style="fill: var(--color2, #2196f3)" d="M26.13 21.586h1.070v1.065h-1.070v-1.065z"></path>
<path fill="#2196f3" style="fill: var(--color2, #2196f3)" d="M24 21.586h1.065v1.065h-1.065v-1.065z"></path>
<path fill="#2196f3" style="fill: var(--color2, #2196f3)" d="M21.33 26.386h1.070v1.065h-1.070v-1.065z"></path>
<path fill="#2196f3" style="fill: var(--color2, #2196f3)" d="M21.33 28.521h1.070v1.065h-1.070v-1.065z"></path>
<path fill="#2196f3" style="fill: var(--color2, #2196f3)" d="M22.4 27.451h1.065v1.070h-1.065v-1.070z"></path>
<path fill="#2196f3" style="fill: var(--color2, #2196f3)" d="M20.265 27.451h1.065v1.070h-1.065v-1.070z"></path>
<path fill="#2196f3" style="fill: var(--color2, #2196f3)" d="M14.93 24.251h1.070v1.070h-1.070v-1.070z"></path>
<path fill="#2196f3" style="fill: var(--color2, #2196f3)" d="M14.93 26.386h1.070v1.065h-1.070v-1.065z"></path>
<path fill="#2196f3" style="fill: var(--color2, #2196f3)" d="M16 25.321h1.065v1.065h-1.065v-1.065z"></path>
<path fill="#2196f3" style="fill: var(--color2, #2196f3)" d="M13.865 25.321h1.065v1.065h-1.065v-1.065z"></path>
<path fill="#2196f3" style="fill: var(--color2, #2196f3)" d="M4.795 6.121h1.070v1.065h-1.070v-1.065z"></path>
<path fill="#2196f3" style="fill: var(--color2, #2196f3)" d="M4.795 8.251h1.070v1.070h-1.070v-1.070z"></path>
<path fill="#2196f3" style="fill: var(--color2, #2196f3)" d="M5.865 7.186h1.065v1.065h-1.065v-1.065z"></path>
<path fill="#2196f3" style="fill: var(--color2, #2196f3)" d="M3.73 7.186h1.065v1.065h-1.065v-1.065z"></path>
<path fill="#212121" style="fill: var(--color3, #212121)" d="M24.713 14.158c-0.288-0.389-0.709-0.64-1.189-0.704-0.48-0.069-0.955 0.055-1.339 0.352l-1.253 0.96-1.897 1.417-1.358-0.544c2.418-1.083 4.114-3.506 4.114-6.318 0-3.822-3.122-6.935-6.962-6.935s-6.962 3.113-6.962 6.935c0 1.385 0.416 2.674 1.12 3.758l-2.761-0.023c-0.005 0-0.005 0-0.009 0s-0.014 0.005-0.023 0.005c-0.050 0-0.105 0.014-0.155 0.032-0.009 0.005-0.023 0.005-0.037 0.014-0.005 0-0.014 0-0.018 0.005l-3.232 1.595c-0.005 0-0.005 0-0.005 0l-1.893 0.91c-0.018 0.009-0.041 0.023-0.064 0.037-0.754 0.503-1.010 1.49-0.599 2.295 0.224 0.43 0.599 0.745 1.056 0.891 0.178 0.055 0.361 0.082 0.539 0.082 0.293 0 0.581-0.073 0.841-0.21l1.39-0.741 2.263-1.17 1.358-0.005-5.445 5.413c0 0 0 0 0 0.005l-1.339 1.33c-0.315 0.315-0.489 0.731-0.489 1.179 0 0.443 0.174 0.864 0.489 1.179 0.325 0.32 0.754 0.485 1.179 0.485 0.43 0 0.855-0.165 1.179-0.485l1.317-1.312 1.742-1.298 0.901 0.896-1.765 1.755c0 0 0 0 0 0l-1.339 1.335c-0.315 0.315-0.489 0.731-0.489 1.179 0 0.443 0.174 0.859 0.489 1.175 0.325 0.325 0.754 0.489 1.179 0.489 0.43 0 0.855-0.165 1.179-0.489l1.339-1.33 2.144-2.135c0 0 0 0 0 0l1.010-1.001-0.005-0.005c0.009-0.005 0.018-0.009 0.023-0.014l5.166-5.659 3.47 0.494c0.027 0.005 0.050 0.005 0.078 0.005 0.064 0 0.128-0.014 0.187-0.037 0.018-0.009 0.032-0.014 0.050-0.023s0.037-0.018 0.055-0.027l3.214-2.135c0.014-0.009 0.018-0.018 0.032-0.027 0.009-0.014 0.027-0.014 0.037-0.027l1.271-1.189c0.663-0.622 0.754-1.637 0.215-2.363zM2.13 17.769c-0.174 0.091-0.37 0.11-0.562 0.050-0.183-0.059-0.338-0.187-0.425-0.357-0.16-0.315-0.069-0.695 0.215-0.905l1.312-0.631 0.315 0.923 0.137 0.389-0.992 0.53zM5.627 15.941l-1.55 0.8-0.256-0.745-0.183-0.539 2.025-1.001-0.037 1.486zM20.727 9.321c0 0.919-0.219 1.783-0.599 2.56l-4.183-1.902c-0.046-0.571-0.343-1.074-0.791-1.385l1.467-4.864c2.377 0.759 4.105 2.976 4.105 5.591zM8.937 9.321c0-3.237 2.642-5.87 5.893-5.87 0.251 0 0.503 0.023 0.745 0.055l-1.431 4.754c-0.018 0-0.037-0.009-0.059-0.009-1.033 0-1.87 0.841-1.87 1.87s0.837 1.865 1.87 1.865c0.695 0 1.298-0.384 1.618-0.946l3.863 1.755c-1.074 1.449-2.793 2.391-4.736 2.391-3.25 0-5.893-2.633-5.893-5.865zM14.894 10.121c0 0.439-0.361 0.8-0.809 0.8-0.443 0-0.805-0.361-0.805-0.8 0-0.443 0.361-0.8 0.805-0.8 0.448 0 0.809 0.357 0.809 0.8zM2.464 25.143c-0.238 0.233-0.622 0.233-0.855 0-0.114-0.11-0.178-0.261-0.178-0.421s0.064-0.311 0.178-0.421l0.96-0.96 0.85 0.846-0.955 0.955zM5.678 28.878c-0.238 0.233-0.622 0.233-0.855 0-0.114-0.114-0.178-0.265-0.178-0.421 0-0.16 0.064-0.311 0.178-0.425l0.96-0.955 0.855 0.846-0.96 0.955zM9.157 25.408c0 0 0 0 0 0l-1.765 1.76-0.402-0.398-0.448-0.448 1.76-1.755c0 0 0 0 0 0s0.005 0 0.005 0c0.037-0.041 0.064-0.091 0.087-0.137 0.009-0.014 0.023-0.027 0.027-0.041 0.018-0.041 0.018-0.082 0.027-0.128 0-0.023 0.014-0.046 0.014-0.073 0-0.037-0.014-0.069-0.023-0.105-0.005-0.032-0.005-0.064-0.018-0.096-0.018-0.050-0.055-0.091-0.091-0.137-0.009-0.009-0.014-0.027-0.023-0.037 0 0 0 0 0 0-0.005 0-0.005 0-0.005-0.005l-1.605-1.6c-0.018-0.014-0.041-0.023-0.059-0.037-0.027-0.023-0.055-0.041-0.087-0.059-0.032-0.014-0.059-0.023-0.091-0.032-0.037-0.009-0.069-0.014-0.105-0.018-0.032 0-0.064 0-0.096 0.005-0.037 0.005-0.069 0.009-0.101 0.018-0.037 0.014-0.064 0.027-0.096 0.046-0.018 0.014-0.041 0.018-0.059 0.032l-1.774 1.321-0.901-0.896 2.395-2.386 4.361 4.288-0.928 0.919zM15.977 18.391c-0.014 0-0.032 0.005-0.046 0.005-0.037-0.005-0.078 0-0.114 0.005-0.032 0.005-0.059 0.014-0.087 0.023-0.037 0.014-0.069 0.027-0.101 0.046-0.027 0.018-0.055 0.037-0.082 0.064-0.014 0.009-0.027 0.014-0.037 0.027l-4.699 5.147-4.329-4.256 2.834-2.821c0.206-0.206 0.21-0.544 0-0.754-0.105-0.105-0.242-0.155-0.379-0.155v0l-2.222 0.014 0.027-1.609 3.104 0.027c1.266 1.294 3.031 2.098 4.983 2.098 0.439 0 0.864-0.046 1.28-0.119 0.041 0.032 0.078 0.064 0.128 0.082l2.409 0.96 0.155 0.759 0.178 0.887-3.003-0.43zM20.018 18.569l-0.315-1.559 1.449-1.079 0.379 0.503 0.567 0.754-2.080 1.381zM23.771 15.739l-0.837 0.786-0.933-1.239 0.832-0.635c0.155-0.119 0.352-0.169 0.544-0.142 0.192 0.023 0.361 0.128 0.48 0.283 0.215 0.293 0.178 0.699-0.087 0.946z"></path>
<path fill="#212121" style="fill: var(--color3, #212121)" d="M13.6 18.542l-2.144-2.135c-0.206-0.206-0.544-0.206-0.75 0l-2.144 2.135c-0.101 0.101-0.155 0.238-0.155 0.379s0.055 0.279 0.155 0.375l2.144 2.135c0.101 0.105 0.238 0.155 0.375 0.155s0.274-0.050 0.375-0.155l2.144-2.135c0.101-0.096 0.155-0.233 0.155-0.375s-0.055-0.279-0.155-0.379zM11.081 20.302l-1.385-1.381 1.385-1.381 1.385 1.381-1.385 1.381z"></path>
<path fill="#212121" style="fill: var(--color3, #212121)" d="M17.161 5.070l-0.256 1.033c0.069 0.018 1.737 0.453 1.737 2.149h1.065c0-2.016-1.664-2.962-2.546-3.182z"></path>
<path fill="#212121" style="fill: var(--color3, #212121)" d="M18.642 9.321h1.065v1.065h-1.065v-1.065z"></path>
</symbol>
<symbol id="icon-diagram" viewBox="0 0 32 32">
<path fill="#2196f3" style="fill: var(--color2, #2196f3)" d="M14.921 14.962h1.070v4.795h-1.070v-4.795z"></path>
<path fill="#2196f3" style="fill: var(--color2, #2196f3)" d="M19.186 17.093h1.070v2.665h-1.070v-2.665z"></path>
<path fill="#2196f3" style="fill: var(--color2, #2196f3)" d="M10.661 18.693h1.065v1.065h-1.065v-1.065z"></path>
<path fill="#2196f3" style="fill: var(--color2, #2196f3)" d="M7.461 18.162h1.065v1.595h-1.065v-1.595z"></path>
<path fill="#212121" style="fill: var(--color3, #212121)" d="M1.595 28.288h25.586c0.887 0 1.6-0.713 1.6-1.6v-2.13c0-0.882-0.713-1.6-1.6-1.6h-0.53v-13.294l3.026-2.866c0.704 0.347 1.554 0.137 2.016-0.498 0.457-0.635 0.393-1.509-0.155-2.071-0.549-0.558-1.417-0.645-2.066-0.197-0.64 0.443-0.873 1.289-0.539 2.002l-2.281 2.162v-1.23c0-0.882-0.718-1.6-1.6-1.6h-21.321c-0.882 0-1.6 0.718-1.6 1.6v15.991h-0.535c-0.882 0-1.595 0.718-1.595 1.6v2.13c0 0.887 0.713 1.6 1.595 1.6zM30.382 4.837c0.293 0 0.535 0.238 0.535 0.53 0 0.297-0.242 0.535-0.535 0.535s-0.535-0.238-0.535-0.535c0-0.293 0.242-0.53 0.535-0.53zM3.195 6.967c0-0.293 0.238-0.535 0.535-0.535h21.321c0.293 0 0.535 0.242 0.535 0.535v2.24l-1.070 1.010v-2.185c0-0.293-0.238-0.53-0.53-0.53h-19.191c-0.293 0-0.535 0.238-0.535 0.53v13.326c0 0.297 0.242 0.535 0.535 0.535h19.191c0.293 0 0.53-0.238 0.53-0.535v-9.673l1.070-1.010v12.283h-22.391v-15.991zM7.995 13.897c-0.722-0.005-1.358 0.475-1.55 1.175-0.192 0.695 0.105 1.431 0.727 1.797 0.622 0.37 1.408 0.279 1.929-0.224l1.851 0.928c0.215 0.11 0.475 0.059 0.635-0.119l3.941-4.434 3.872 2.903c0.206 0.155 0.498 0.137 0.686-0.041l3.365-3.186v8.133h-18.121v-12.261h18.121v2.661l-3.771 3.57-3.904-2.926c-0.219-0.169-0.535-0.137-0.718 0.069l-3.995 4.494-1.49-0.745c0.009-0.064 0.018-0.128 0.018-0.192 0-0.887-0.713-1.6-1.595-1.6zM8.526 15.497c0 0.293-0.238 0.53-0.53 0.53-0.297 0-0.535-0.238-0.535-0.53 0-0.297 0.238-0.535 0.535-0.535 0.293 0 0.53 0.238 0.53 0.535zM11.726 24.023h5.33v0.535c0 0.293-0.238 0.535-0.535 0.535h-4.265c-0.293 0-0.53-0.242-0.53-0.535v-0.535zM1.065 24.558c0-0.293 0.238-0.535 0.53-0.535h9.065v0.535c0 0.882 0.713 1.6 1.595 1.6h4.265c0.882 0 1.6-0.718 1.6-1.6v-0.535h9.061c0.297 0 0.535 0.242 0.535 0.535v2.13c0 0.297-0.238 0.535-0.535 0.535h-25.586c-0.293 0-0.53-0.238-0.53-0.535v-2.13z"></path>
</symbol>
<symbol id="icon-clock" viewBox="0 0 32 32">
<path fill="#212121" style="fill: var(--color3, #212121)" d="M31.296 15.301c-0.005-8.453-6.857-15.305-15.31-15.301-8.453 0-15.301 6.853-15.301 15.305 0 6.661 4.306 12.553 10.647 14.578 0.064 0.018 0.123 0.027 0.187 0.027 0.123 0 0.242-0.032 0.343-0.096 0.137-0.078 0.238-0.206 0.283-0.357l3.867-12.247c1.056-0.005 1.906-0.869 1.902-1.925s-0.869-1.906-1.925-1.902c-0.283 0-0.562 0.064-0.818 0.192l-5.106-5.106c-0.251-0.247-0.658-0.238-0.901 0.014-0.238 0.247-0.238 0.64 0 0.887l5.102 5.106c-0.393 0.8-0.169 1.765 0.535 2.313l-3.68 11.671c-7.278-2.679-11.003-10.752-8.325-18.030 2.683-7.278 10.757-11.008 18.034-8.325 7.278 2.679 11.003 10.752 8.32 18.030-1.307 3.557-4 6.432-7.461 7.973l-0.398-1.874c-0.073-0.343-0.411-0.562-0.754-0.489-0.11 0.023-0.21 0.073-0.293 0.146l-3.84 3.429c-0.261 0.233-0.283 0.635-0.050 0.901 0.078 0.082 0.174 0.146 0.283 0.183l4.896 1.563c0.338 0.105 0.695-0.078 0.805-0.411 0.032-0.11 0.041-0.219 0.018-0.329l-0.393-1.838c5.664-2.391 9.344-7.945 9.33-14.089zM15.991 14.661c0.352 0 0.635 0.288 0.635 0.64s-0.283 0.635-0.635 0.635c-0.352 0-0.64-0.283-0.64-0.635s0.288-0.64 0.64-0.64zM18.089 29.527l2.185-1.952 0.603 2.843-2.789-0.891z"></path>
<path fill="#2196f3" style="fill: var(--color2, #2196f3)" d="M15.351 3.182v1.275c0 0.352 0.288 0.64 0.64 0.64s0.635-0.288 0.635-0.64v-1.275c0-0.352-0.283-0.635-0.635-0.635s-0.64 0.283-0.64 0.635z"></path>
<path fill="#2196f3" style="fill: var(--color2, #2196f3)" d="M3.872 14.661c-0.352 0-0.635 0.288-0.635 0.64s0.283 0.635 0.635 0.635h1.275c0.352 0 0.64-0.283 0.64-0.635s-0.288-0.64-0.64-0.64h-1.275z"></path>
<path fill="#2196f3" style="fill: var(--color2, #2196f3)" d="M28.105 15.936c0.352 0 0.64-0.283 0.64-0.635s-0.288-0.64-0.64-0.64h-1.275c-0.352 0-0.635 0.288-0.635 0.64s0.283 0.635 0.635 0.635h1.275z"></path>
</symbol>
<symbol id="icon-antenna" viewBox="0 0 32 32">
<path fill="#212121" style="fill: var(--color3, #212121)" d="M30.77 22.094l-8.443-8.503 0.937-4.617c0.242 0.096 0.498 0.146 0.759 0.146h0.005c1.193 0.014 2.171-0.942 2.185-2.135 0.014-1.189-0.942-2.167-2.13-2.181-1.193-0.014-2.171 0.937-2.185 2.13-0.005 0.256 0.037 0.512 0.123 0.75l-4.96 0.608-8.091-8.137c-0.096-0.101-0.233-0.155-0.375-0.155s-0.274 0.055-0.375 0.151l-1.513 1.504c-0.206 0.21-0.206 0.549 0 0.754l0.814 0.827c-3.15 5.797-2.126 12.978 2.523 17.664 0.041 0.041 0.091 0.073 0.142 0.096-0.032 0.183-0.050 0.366-0.050 0.549v6.185h-6.4c-1.472 0.005-2.665 1.198-2.665 2.67v1.065c0 0.293 0.238 0.535 0.53 0.535h24.535c0.293 0 0.535-0.242 0.535-0.535v-1.065c-0.005-1.472-1.198-2.665-2.67-2.67h-6.4v-2.743c1.006 0.21 2.025 0.32 3.049 0.32 2.459 0 4.878-0.613 7.040-1.783l0.818 0.823c0.101 0.101 0.238 0.16 0.379 0.16 0.137 0 0.274-0.055 0.37-0.155l1.513-1.504c0.21-0.206 0.21-0.544 0-0.754zM23.278 6.231c0.416-0.416 1.093-0.411 1.509 0.005s0.411 1.093-0.005 1.509c-0.201 0.197-0.471 0.311-0.754 0.311v0c-0.59-0.005-1.065-0.485-1.061-1.074 0-0.279 0.114-0.553 0.311-0.75v0zM22.021 9.737l-0.599 2.944-1.175-1.184 1.774-1.76zM21.417 8.832l-1.92 1.911-1.486-1.495 3.406-0.416zM24 28.8c0.887 0 1.6 0.713 1.6 1.6v0.53h-23.465v-0.53c0-0.887 0.718-1.6 1.6-1.6h20.265zM16.535 26.665v1.065h-5.335v-1.065h5.335zM11.2 25.6v-4.055c0-1.294 1.198-2.345 2.67-2.345 1.467 0 2.665 1.051 2.665 2.345v4.055h-5.335zM17.6 23.904v-2.359c0-1.883-1.673-3.415-3.73-3.415-1.33-0.018-2.578 0.658-3.282 1.787-4.059-4.274-4.974-10.647-2.277-15.886l18.601 18.706c-2.875 1.463-6.167 1.874-9.312 1.166zM28.891 23.218l-0.754-0.754-20.302-20.425 0.754-0.754 7.931 7.982c0.005 0 0.009 0.005 0.014 0.009l13.111 13.189-0.754 0.754z"></path>
<path fill="#2196f3" style="fill: var(--color2, #2196f3)" d="M13.874 20.265h-0.005c-0.887 0-1.605 0.713-1.605 1.595 0 0.887 0.713 1.605 1.6 1.605h0.005c0.882 0 1.6-0.713 1.6-1.6 0.005-0.882-0.713-1.6-1.595-1.6zM14.245 22.245c-0.101 0.096-0.233 0.155-0.375 0.155-0.297-0.005-0.535-0.242-0.53-0.539 0-0.142 0.055-0.274 0.155-0.375 0.101-0.096 0.233-0.155 0.375-0.155 0.293 0.005 0.53 0.242 0.53 0.535 0 0.142-0.059 0.279-0.16 0.379h0.005z"></path>
</symbol>
<symbol id="icon-smartphone" viewBox="0 0 32 32">
<path d="M23 0h-14c-1.66 0-3 1.34-3 3v26c0 1.64 1.34 3 3 3h14c1.64 0 3-1.36 3-3v-26c0-1.66-1.36-3-3-3zM9 2h14c0.54 0 1 0.44 1 1v21h-16v-21c0-0.56 0.44-1 1-1zM23 30h-14c-0.56 0-1-0.46-1-1v-3h16v3c0 0.54-0.46 1-1 1z"></path>
<path d="M10.7 27.46c0.38 0.38 0.38 0.96 0 1.32-0.4 0.38-1.020 0.38-1.42 0-0.38-0.36-0.38-0.94 0-1.32 0.4-0.36 1.020-0.36 1.42 0z"></path>
</symbol>
<symbol id="icon-envelope-hover" viewBox="0 0 32 32">
<path d="M29 4h-26c-1.66 0-3 1.34-3 3v18c0 1.64 1.34 3 3 3h26c1.64 0 3-1.36 3-3v-18c0-1.66-1.36-3-3-3zM29 6c0.12 0 0.26 0.020 0.38 0.060l-13.38 11.6-13.4-11.6c0.12-0.040 0.26-0.060 0.4-0.060h26zM29 26h-26c-0.56 0-1-0.46-1-1v-16.82l13.34 11.56c0.18 0.16 0.42 0.26 0.66 0.26 0.22 0 0.46-0.1 0.64-0.26l13.36-11.56v16.82c0 0.54-0.46 1-1 1z"></path>
</symbol>
<symbol id="icon-newsletter" viewBox="0 0 32 32">
<path fill="#fff" style="fill: var(--color1, #fff)" d="M32 0l-32 18 10.213 3.787 15.787-14.787-12 16.173v8.827l5.733-6.693 7.267 2.693 5-28z"></path>
</symbol>
<svg aria-hidden="true" style="position: absolute; width: 0; height: 0; overflow: hidden;" version="1.1" xmlns="http://www.w3.org/2000/svg" xmlns:xlink="http://www.w3.org/1999/xlink">
<defs>
<symbol id="icon-name" viewBox="0 0 32 32">
<path d="M16 16c2.947 0 5.333-2.387 5.333-5.333s-2.387-5.333-5.333-5.333c-2.947 0-5.333 2.387-5.333 5.333s2.387 5.333 5.333 5.333zM16 18.667c-3.56 0-10.667 1.787-10.667 5.333v1.333c0 0.733 0.6 1.333 1.333 1.333h18.667c0.733 0 1.333-0.6 1.333-1.333v-1.333c0-3.547-7.107-5.333-10.667-5.333z"></path>
</symbol>
<symbol id="icon-tel" viewBox="0 0 32 32">
<path d="M24.882 19.773l-3.268-0.373c-0.785-0.090-1.557 0.18-2.11 0.733l-2.367 2.367c-3.641-1.853-6.626-4.825-8.478-8.478l2.38-2.38c0.553-0.553 0.823-1.325 0.733-2.11l-0.373-3.242c-0.154-1.299-1.248-2.277-2.56-2.277h-2.226c-1.454 0-2.663 1.209-2.573 2.663 0.682 10.987 9.469 19.761 20.443 20.443 1.454 0.090 2.663-1.119 2.663-2.573v-2.226c0.013-1.3-0.965-2.393-2.264-2.547z"></path>
</symbol>
<symbol id="icon-Vector" viewBox="0 0 34 32">
<path d="M30.341 3.556v24.889h-26.548v-24.889h26.548zM30.341 0h-26.548c-2.086 0-3.793 1.6-3.793 3.556v24.889c0 1.956 1.707 3.556 3.793 3.556h26.548c2.086 0 3.793-1.6 3.793-3.556v-24.889c0-1.956-1.707-3.556-3.793-3.556z"></path>
</symbol>
<symbol id="icon-email" viewBox="0 0 32 32">
<path d="M26.667 5.333h-21.333c-1.476 0-2.667 1.191-2.667 2.667v16c0 1.458 1.191 2.667 2.667 2.667h21.333c1.458 0 2.667-1.209 2.667-2.667v-16c0-1.476-1.209-2.667-2.667-2.667zM26.133 10.987l-9.44 5.902c-0.2 0.125-0.442 0.2-0.702 0.2s-0.503-0.074-0.708-0.203l0.006 0.003-9.422-5.902c-0.322-0.202-0.533-0.555-0.533-0.957 0-0.001 0-0.002 0-0.003v0c0-0.889 0.96-1.422 1.724-0.96l8.942 5.6 8.924-5.6c0.764-0.462 1.742 0.071 1.742 0.96 0 0.391-0.213 0.747-0.533 0.96z"></path>
</symbol>
<symbol id="icon-phone" viewBox="0 0 32 32">
<path d="M24.871 19.769l-3.271-0.373c-0.782-0.089-1.547 0.178-2.098 0.729l-2.382 2.364c-3.664-1.894-6.575-4.811-8.412-8.372l-0.051-0.108 2.364-2.382c0.569-0.551 0.836-1.316 0.747-2.098l-0.373-3.253c-0.16-1.298-1.262-2.276-2.56-2.276h-2.24c-1.44 0-2.649 1.209-2.56 2.667 0.676 10.987 9.458 19.769 20.444 20.444 1.44 0.089 2.649-1.12 2.649-2.578v-2.222c0.018-1.298-0.96-2.4-2.258-2.542z"></path>
</symbol>
<symbol id="icon-person" viewBox="0 0 32 32">
<path d="M16 16c2.933 0 5.333-2.4 5.333-5.333 0-2.951-2.4-5.333-5.333-5.333-2.951 0-5.333 2.382-5.333 5.333 0 2.933 2.382 5.333 5.333 5.333zM16 18.667c-3.573 0-10.667 1.778-10.667 5.333v1.333c0 0.729 0.587 1.333 1.333 1.333h18.667c0.729 0 1.333-0.604 1.333-1.333v-1.333c0-3.556-7.111-5.333-10.667-5.333z"></path>
</symbol>
<symbol id="icon-check" viewBox="0 0 43 32">
<path d="M14.143 24.619l-9.765-9.279-3.293 3.143 13.058 12.459 28.099-26.789-3.33-3.143-24.769 23.609z"></path>
<path  d="M14.143 23.609l24.769-23.609 4.415 4.153-29.184 27.837-14.143-13.507 3.891-3.704 0.486-0.486 9.765 9.316zM14.143 24.619l-9.765-9.279-2.769 2.619-0.524 0.524 0.524 0.486 12.534 11.973 28.099-26.789-0.561-0.524-2.769-2.619-24.769 23.609z"></path>
<symbol id="icon-close" viewBox="0 0 32 32">
<path d="M32 3.2l-3.229-3.2-12.771 12.771-12.8-12.771-3.2 3.2 12.771 12.8-12.771 12.771 3.2 3.229 12.8-12.8 12.771 12.8 3.229-3.229-12.8-12.771 12.8-12.8z"></path>
</symbol>
<symbol id="icon-menu" viewBox="0 0 32 32">
<path d="M6.4 11.733v-2.133h19.2v2.133h-19.2zM6.4 17.067h19.2v-2.133h-19.2v2.133zM6.4 22.4h19.2v-2.133h-19.2v2.133z"></path>
</symbol>
</symbol>
</defs>
</svg>